<svg width="258" height="60" viewBox="0 0 258 60" fill="none" xmlns="http://www.w3.org/2000/svg">
<rect width="52" height="52" transform="matrix(0 1 -1 0 66 4)" fill="#3866FB"/>
<mask id="mask0_2794_605" style="mask-type:alpha" maskUnits="userSpaceOnUse" x="16" y="4" width="48" height="48">
<rect x="64" y="4" width="48" height="48" transform="rotate(90 64 4)" fill="#D9D9D9"/>
</mask>
<g mask="url(#mask0_2794_605)">
<path d="M22.667 45.1667C22.667 44.5529 22.9017 44.0383 23.3711 43.623C23.8406 43.2077 24.4003 42.964 25.0503 42.8917C28.7698 42.6029 32.2545 41.6911 35.5045 40.1563C38.7545 38.6216 41.6163 36.6174 44.0899 34.1438C46.5635 31.6702 48.5767 28.8084 50.1295 25.5584C51.6823 22.3084 52.6031 18.8417 52.892 15.1584C52.9642 14.5084 53.208 13.9306 53.6232 13.4251C54.0385 12.9195 54.5531 12.6667 55.167 12.6667C55.7809 12.6667 56.2955 12.8924 56.7107 13.3438C57.126 13.7952 57.3156 14.3279 57.2795 14.9417C56.9906 19.2751 55.9524 23.3466 54.1649 27.1563C52.3774 30.9661 50.0392 34.3154 47.1503 37.2042C44.2614 40.0931 40.9031 42.4313 37.0753 44.2188C33.2475 46.0063 29.167 47.0265 24.8336 47.2792C24.2198 47.3154 23.7052 47.1258 23.2899 46.7105C22.8746 46.2952 22.667 45.7806 22.667 45.1667Z" fill="url(#paint0_radial_2794_605)"/>
</g>
<path d="M82.964 39.86C81.608 39.86 80.492 39.644 79.616 39.212C78.74 38.768 78.05 38.174 77.546 37.43C77.042 36.686 76.688 35.858 76.484 34.946C76.28 34.034 76.178 33.11 76.178 32.174C76.178 31.742 76.178 31.286 76.178 30.806C76.178 30.326 76.178 29.834 76.178 29.33V20.384H81.758V28.448C81.758 28.856 81.758 29.252 81.758 29.636C81.758 30.02 81.758 30.374 81.758 30.698C81.758 31.502 81.848 32.24 82.028 32.912C82.208 33.584 82.538 34.124 83.018 34.532C83.51 34.94 84.206 35.144 85.106 35.144C85.982 35.144 86.726 34.898 87.338 34.406C87.95 33.902 88.418 33.26 88.742 32.48C89.066 31.7 89.228 30.896 89.228 30.068L90.794 31.346C90.794 32.546 90.608 33.662 90.236 34.694C89.876 35.726 89.36 36.632 88.688 37.412C88.016 38.18 87.194 38.78 86.222 39.212C85.262 39.644 84.176 39.86 82.964 39.86ZM89.228 39.5V20.384H94.808V39.5H89.228ZM98.9944 47.366V20.384H104.592V47.366H98.9944ZM110.496 39.932C108.984 39.932 107.598 39.53 106.338 38.726C105.078 37.91 104.07 36.818 103.314 35.45C102.558 34.07 102.18 32.522 102.18 30.806C102.18 30.758 102.18 30.716 102.18 30.68C102.18 30.632 102.18 30.578 102.18 30.518L104.592 30.464C104.592 30.5 104.592 30.536 104.592 30.572C104.592 30.608 104.592 30.644 104.592 30.68C104.592 31.568 104.808 32.348 105.24 33.02C105.672 33.68 106.23 34.19 106.914 34.55C107.598 34.91 108.312 35.09 109.056 35.09C110.28 35.09 111.342 34.67 112.242 33.83C113.154 32.978 113.61 31.652 113.61 29.852C113.61 28.052 113.16 26.744 112.26 25.928C111.36 25.1 110.292 24.686 109.056 24.686C108.312 24.686 107.598 24.866 106.914 25.226C106.23 25.574 105.672 26.072 105.24 26.72C104.808 27.368 104.592 28.142 104.592 29.042L102.18 28.898C102.18 27.17 102.558 25.646 103.314 24.326C104.07 22.994 105.078 21.944 106.338 21.176C107.598 20.408 108.984 20.024 110.496 20.024C112.044 20.024 113.49 20.408 114.834 21.176C116.178 21.932 117.264 23.042 118.092 24.506C118.932 25.97 119.352 27.752 119.352 29.852C119.352 32.048 118.944 33.896 118.128 35.396C117.312 36.896 116.232 38.03 114.888 38.798C113.544 39.554 112.08 39.932 110.496 39.932ZM130.786 39.932C129.646 39.932 128.548 39.8 127.492 39.536C126.436 39.272 125.488 38.882 124.648 38.366C123.82 37.85 123.16 37.208 122.668 36.44C122.188 35.66 121.948 34.754 121.948 33.722C121.948 33.674 121.948 33.62 121.948 33.56C121.948 33.488 121.948 33.434 121.948 33.398H127.492C127.492 33.434 127.492 33.476 127.492 33.524C127.492 33.56 127.492 33.602 127.492 33.65C127.492 34.346 127.798 34.856 128.41 35.18C129.034 35.504 129.874 35.666 130.93 35.666C131.482 35.666 132.01 35.612 132.514 35.504C133.03 35.384 133.45 35.198 133.774 34.946C134.11 34.682 134.278 34.352 134.278 33.956C134.278 33.32 133.924 32.87 133.216 32.606C132.52 32.342 131.398 32.078 129.85 31.814C128.974 31.67 128.086 31.466 127.186 31.202C126.286 30.938 125.458 30.59 124.702 30.158C123.946 29.714 123.34 29.156 122.884 28.484C122.428 27.8 122.2 26.972 122.2 26C122.2 24.704 122.59 23.612 123.37 22.724C124.162 21.836 125.212 21.164 126.52 20.708C127.828 20.252 129.268 20.024 130.84 20.024C132.34 20.024 133.738 20.276 135.034 20.78C136.33 21.272 137.38 21.986 138.184 22.922C138.988 23.846 139.39 24.962 139.39 26.27C139.39 26.294 139.39 26.33 139.39 26.378C139.39 26.426 139.39 26.474 139.39 26.522H133.9C133.9 26.474 133.9 26.432 133.9 26.396C133.9 26.36 133.9 26.33 133.9 26.306C133.9 25.826 133.744 25.436 133.432 25.136C133.132 24.836 132.748 24.614 132.28 24.47C131.812 24.314 131.326 24.236 130.822 24.236C130.366 24.236 129.892 24.29 129.4 24.398C128.92 24.494 128.512 24.662 128.176 24.902C127.84 25.13 127.672 25.454 127.672 25.874C127.672 26.282 127.852 26.618 128.212 26.882C128.572 27.134 129.076 27.344 129.724 27.512C130.372 27.668 131.122 27.818 131.974 27.962C132.778 28.094 133.624 28.28 134.512 28.52C135.412 28.748 136.252 29.078 137.032 29.51C137.824 29.93 138.46 30.488 138.94 31.184C139.432 31.868 139.678 32.738 139.678 33.794C139.678 34.886 139.426 35.822 138.922 36.602C138.418 37.382 137.734 38.018 136.87 38.51C136.018 38.99 135.064 39.344 134.008 39.572C132.964 39.812 131.89 39.932 130.786 39.932ZM158.207 39.5L154.211 20.384H158.279L162.293 37.916L161.375 37.952L163.877 20.384H169.637L165.821 39.5H158.207ZM144.923 39.5L141.107 20.384H146.867L149.369 37.952L148.469 37.916L152.447 20.384H156.515L152.555 39.5H144.923ZM172.079 39.5V20.384H177.605V39.5H172.079ZM174.833 17.27C173.969 17.27 173.213 17.042 172.565 16.586C171.929 16.13 171.611 15.488 171.611 14.66C171.611 13.82 171.929 13.172 172.565 12.716C173.213 12.26 173.969 12.032 174.833 12.032C175.709 12.032 176.465 12.26 177.101 12.716C177.749 13.172 178.073 13.82 178.073 14.66C178.073 15.5 177.749 16.148 177.101 16.604C176.465 17.048 175.709 17.27 174.833 17.27ZM195.181 39.5V31.382C195.181 30.926 195.181 30.512 195.181 30.14C195.181 29.768 195.181 29.432 195.181 29.132C195.181 28.34 195.079 27.62 194.875 26.972C194.671 26.312 194.305 25.784 193.777 25.388C193.249 24.992 192.487 24.794 191.491 24.794C190.627 24.794 189.877 24.992 189.241 25.388C188.617 25.784 188.137 26.336 187.801 27.044C187.465 27.752 187.297 28.568 187.297 29.492L185.749 28.376C185.749 26.72 186.109 25.268 186.829 24.02C187.549 22.772 188.521 21.794 189.745 21.086C190.981 20.378 192.349 20.024 193.849 20.024C195.421 20.024 196.711 20.342 197.719 20.978C198.739 21.602 199.495 22.478 199.987 23.606C200.491 24.722 200.743 26.03 200.743 27.53C200.743 28.142 200.743 28.826 200.743 29.582C200.743 30.338 200.743 31.112 200.743 31.904V39.5H195.181ZM181.717 39.5V20.384H187.297V39.5H181.717ZM218.114 37.232C219.29 37.352 220.316 37.58 221.192 37.916C222.08 38.24 222.77 38.726 223.262 39.374C223.754 40.01 224 40.862 224 41.93C224 43.166 223.592 44.216 222.776 45.08C221.972 45.956 220.79 46.622 219.23 47.078C217.67 47.534 215.78 47.762 213.56 47.762C210.284 47.762 207.746 47.288 205.946 46.34C204.158 45.404 203.264 44.15 203.264 42.578C203.264 42.134 203.312 41.732 203.408 41.372C203.516 41.024 203.648 40.724 203.804 40.472L208.88 41.21C208.82 41.294 208.754 41.42 208.682 41.588C208.622 41.768 208.592 41.99 208.592 42.254C208.592 42.89 209.066 43.364 210.014 43.676C210.974 43.988 212.21 44.144 213.722 44.144C214.79 44.144 215.702 44.066 216.458 43.91C217.226 43.766 217.808 43.55 218.204 43.262C218.612 42.974 218.816 42.644 218.816 42.272C218.816 41.732 218.552 41.378 218.024 41.21C217.508 41.042 216.908 40.922 216.224 40.85L208.988 40.112C207.656 39.98 206.552 39.596 205.676 38.96C204.8 38.324 204.362 37.466 204.362 36.386C204.362 35.714 204.548 35.102 204.92 34.55C205.292 33.986 205.718 33.524 206.198 33.164C206.678 32.792 207.08 32.558 207.404 32.462L210.248 33.902C210.02 33.938 209.75 34.082 209.438 34.334C209.138 34.586 208.988 34.88 208.988 35.216C208.988 35.552 209.156 35.84 209.492 36.08C209.84 36.32 210.47 36.482 211.382 36.566L218.114 37.232ZM220.004 20.384H224.918L222.92 27.728C222.548 29.12 221.996 30.362 221.264 31.454C220.532 32.534 219.554 33.386 218.33 34.01C217.118 34.634 215.588 34.946 213.74 34.946C211.796 34.946 210.11 34.646 208.682 34.046C207.266 33.446 206.174 32.6 205.406 31.508C204.638 30.404 204.254 29.102 204.254 27.602C204.254 26.102 204.644 24.782 205.424 23.642C206.216 22.502 207.29 21.614 208.646 20.978C210.014 20.342 211.562 20.024 213.29 20.024C214.598 20.024 215.792 20.24 216.872 20.672C217.964 21.092 218.84 21.65 219.5 22.346C220.172 23.042 220.52 23.81 220.544 24.65L219.518 24.92L220.004 20.384ZM213.704 30.86C214.496 30.86 215.192 30.734 215.792 30.482C216.392 30.218 216.86 29.84 217.196 29.348C217.532 28.844 217.7 28.238 217.7 27.53C217.7 26.834 217.532 26.24 217.196 25.748C216.86 25.256 216.392 24.878 215.792 24.614C215.192 24.35 214.496 24.218 213.704 24.218C212.948 24.218 212.264 24.356 211.652 24.632C211.052 24.896 210.578 25.28 210.23 25.784C209.882 26.276 209.708 26.876 209.708 27.584C209.708 28.28 209.876 28.874 210.212 29.366C210.548 29.846 211.016 30.218 211.616 30.482C212.216 30.734 212.912 30.86 213.704 30.86ZM230.709 40.04C229.881 40.04 229.179 39.752 228.603 39.176C228.027 38.6 227.739 37.898 227.739 37.07C227.739 36.254 228.027 35.558 228.603 34.982C229.179 34.406 229.881 34.118 230.709 34.118C231.525 34.118 232.221 34.406 232.797 34.982C233.373 35.558 233.661 36.254 233.661 37.07C233.661 37.898 233.373 38.6 232.797 39.176C232.221 39.752 231.525 40.04 230.709 40.04Z" fill="#20273E"/>
<defs>
<radialGradient id="paint0_radial_2794_605" cx="0" cy="0" r="1" gradientUnits="userSpaceOnUse" gradientTransform="translate(22.3571 77.543) rotate(-61.5258) scale(62.3251)">
<stop stop-color="#3866FB"/>
<stop offset="1" stop-color="white"/>
</radialGradient>
</defs>
</svg>
