<svg width="16" height="16" viewBox="0 0 16 16" fill="none" xmlns="http://www.w3.org/2000/svg">
<rect x="16" width="16" height="16" rx="1" transform="rotate(90 16 0)" fill="#3866FB"/>
<mask id="mask0_2794_596" style="mask-type:alpha" maskUnits="userSpaceOnUse" x="0" y="0" width="16" height="16">
<rect x="16" width="16" height="16" transform="rotate(90 16 0)" fill="#D9D9D9"/>
</mask>
<g mask="url(#mask0_2794_596)">
<path d="M2.66675 12.6667C2.66675 12.4779 2.73897 12.3195 2.88342 12.1917C3.02786 12.064 3.20008 11.989 3.40008 11.9667C4.54453 11.8779 5.61675 11.5973 6.61675 11.1251C7.61675 10.6529 8.49731 10.0362 9.25842 9.27508C10.0195 8.51397 10.639 7.63341 11.1168 6.63341C11.5945 5.63341 11.8779 4.56675 11.9668 3.43341C11.989 3.23341 12.064 3.05564 12.1918 2.90008C12.3195 2.74453 12.4779 2.66675 12.6668 2.66675C12.8556 2.66675 13.014 2.73619 13.1418 2.87508C13.2695 3.01397 13.3279 3.17786 13.3168 3.36675C13.2279 4.70008 12.9084 5.95286 12.3584 7.12508C11.8084 8.2973 11.089 9.32786 10.2001 10.2167C9.3112 11.1056 8.27786 11.8251 7.10008 12.3751C5.92231 12.9251 4.66675 13.239 3.33342 13.3167C3.14453 13.3279 2.9862 13.2695 2.85842 13.1417C2.73064 13.014 2.66675 12.8556 2.66675 12.6667Z" fill="url(#paint0_radial_2794_596)"/>
</g>
<defs>
<radialGradient id="paint0_radial_2794_596" cx="0" cy="0" r="1" gradientUnits="userSpaceOnUse" gradientTransform="translate(2.57141 22.6287) rotate(-61.5258) scale(19.1769)">
<stop stop-color="#3866FB"/>
<stop offset="1" stop-color="white"/>
</radialGradient>
</defs>
</svg>
