<svg width="56" height="56" viewBox="0 0 56 56" fill="none" xmlns="http://www.w3.org/2000/svg">
<rect width="56" height="56" rx="16" fill="#F9FAFF"/>
<mask id="mask0_3333_951" style="mask-type:alpha" maskUnits="userSpaceOnUse" x="8" y="8" width="40" height="40">
<rect x="8" y="8" width="40" height="40" fill="#D9D9D9"/>
</mask>
<g mask="url(#mask0_3333_951)">
<path d="M28.0002 44.6668C25.7224 44.6668 23.5696 44.2293 21.5418 43.3543C19.5141 42.4793 17.7432 41.2849 16.2293 39.771C14.7154 38.2571 13.521 36.4863 12.646 34.4585C11.771 32.4307 11.3335 30.2779 11.3335 28.0002C11.3335 25.6946 11.7849 23.5279 12.6877 21.5002C13.5904 19.4724 14.8127 17.7085 16.3543 16.2085C17.896 14.7085 19.6946 13.521 21.7502 12.646C23.8057 11.771 26.0002 11.3335 28.3335 11.3335C30.5557 11.3335 32.6529 11.7154 34.6252 12.4793C36.5974 13.2432 38.3265 14.2988 39.8127 15.646C41.2988 16.9932 42.4793 18.5904 43.3543 20.4377C44.2293 22.2849 44.6668 24.2779 44.6668 26.4168C44.6668 29.6113 43.6946 32.0627 41.7502 33.771C39.8057 35.4793 37.4446 36.3335 34.6668 36.3335H31.5835C31.3335 36.3335 31.1599 36.4029 31.0627 36.5418C30.9654 36.6807 30.9168 36.8335 30.9168 37.0002C30.9168 37.3335 31.1252 37.8127 31.5418 38.4377C31.9585 39.0627 32.1668 39.7779 32.1668 40.5835C32.1668 41.9724 31.7849 43.0002 31.021 43.6668C30.2571 44.3335 29.2502 44.6668 28.0002 44.6668ZM18.8335 29.6668C19.5557 29.6668 20.1529 29.4307 20.6252 28.9585C21.0974 28.4863 21.3335 27.8891 21.3335 27.1668C21.3335 26.4446 21.0974 25.8474 20.6252 25.3752C20.1529 24.9029 19.5557 24.6668 18.8335 24.6668C18.1113 24.6668 17.5141 24.9029 17.0418 25.3752C16.5696 25.8474 16.3335 26.4446 16.3335 27.1668C16.3335 27.8891 16.5696 28.4863 17.0418 28.9585C17.5141 29.4307 18.1113 29.6668 18.8335 29.6668ZM23.8335 23.0002C24.5557 23.0002 25.1529 22.7641 25.6252 22.2918C26.0974 21.8196 26.3335 21.2224 26.3335 20.5002C26.3335 19.7779 26.0974 19.1807 25.6252 18.7085C25.1529 18.2363 24.5557 18.0002 23.8335 18.0002C23.1113 18.0002 22.5141 18.2363 22.0418 18.7085C21.5696 19.1807 21.3335 19.7779 21.3335 20.5002C21.3335 21.2224 21.5696 21.8196 22.0418 22.2918C22.5141 22.7641 23.1113 23.0002 23.8335 23.0002ZM32.1668 23.0002C32.8891 23.0002 33.4863 22.7641 33.9585 22.2918C34.4307 21.8196 34.6668 21.2224 34.6668 20.5002C34.6668 19.7779 34.4307 19.1807 33.9585 18.7085C33.4863 18.2363 32.8891 18.0002 32.1668 18.0002C31.4446 18.0002 30.8474 18.2363 30.3752 18.7085C29.9029 19.1807 29.6668 19.7779 29.6668 20.5002C29.6668 21.2224 29.9029 21.8196 30.3752 22.2918C30.8474 22.7641 31.4446 23.0002 32.1668 23.0002ZM37.1668 29.6668C37.8891 29.6668 38.4863 29.4307 38.9585 28.9585C39.4307 28.4863 39.6668 27.8891 39.6668 27.1668C39.6668 26.4446 39.4307 25.8474 38.9585 25.3752C38.4863 24.9029 37.8891 24.6668 37.1668 24.6668C36.4446 24.6668 35.8474 24.9029 35.3752 25.3752C34.9029 25.8474 34.6668 26.4446 34.6668 27.1668C34.6668 27.8891 34.9029 28.4863 35.3752 28.9585C35.8474 29.4307 36.4446 29.6668 37.1668 29.6668Z" fill="#3866FB"/>
</g>
</svg>
