<svg width="56" height="56" viewBox="0 0 56 56" fill="none" xmlns="http://www.w3.org/2000/svg">
<rect width="56" height="56" rx="16" fill="#F9FAFF"/>
<mask id="mask0_3333_948" style="mask-type:alpha" maskUnits="userSpaceOnUse" x="8" y="8" width="40" height="40">
<rect x="8" y="8" width="40" height="40" fill="#D9D9D9"/>
</mask>
<g mask="url(#mask0_3333_948)">
<path d="M26.8332 21.8333L23.3748 18.3333C23.0415 18 22.8748 17.6111 22.8748 17.1667C22.8748 16.7222 23.0415 16.3333 23.3748 16L26.8384 12.5C27.1682 12.1667 27.5605 12 28.015 12C28.4695 12 28.8673 12.1667 29.2082 12.5L32.6665 16C32.9998 16.3333 33.1665 16.7222 33.1665 17.1667C33.1665 17.6111 32.9998 18 32.6665 18.3333L29.203 21.8333C28.8731 22.1667 28.4809 22.3333 28.0263 22.3333C27.5718 22.3333 27.1741 22.1667 26.8332 21.8333ZM11.3332 41.3333C10.8609 41.3333 10.4651 41.1736 10.1457 40.8542C9.82623 40.5347 9.6665 40.1389 9.6665 39.6667V34.6667C9.6665 33.7222 9.99289 32.9306 10.6457 32.2917C11.2984 31.6528 12.0832 31.3333 12.9998 31.3333H18.4582C19.0137 31.3333 19.5415 31.4722 20.0415 31.75C20.5415 32.0278 20.9443 32.4028 21.2498 32.875C22.0554 33.9583 23.0484 34.8056 24.229 35.4167C25.4096 36.0278 26.6665 36.3333 27.9998 36.3333C29.3609 36.3333 30.6318 36.0278 31.8123 35.4167C32.9929 34.8056 33.9721 33.9583 34.7498 32.875C35.111 32.4028 35.5346 32.0278 36.0207 31.75C36.5068 31.4722 37.0137 31.3333 37.5415 31.3333H42.9998C43.9443 31.3333 44.736 31.6528 45.3748 32.2917C46.0137 32.9306 46.3332 33.7222 46.3332 34.6667V39.6667C46.3332 40.1389 46.1735 40.5347 45.854 40.8542C45.5346 41.1736 45.1387 41.3333 44.6665 41.3333H36.3332C35.861 41.3333 35.4651 41.1736 35.1457 40.8542C34.8262 40.5347 34.6665 40.1389 34.6665 39.6667V37.5417C33.6943 38.2361 32.6457 38.7639 31.5207 39.125C30.3957 39.4861 29.2221 39.6667 27.9998 39.6667C26.8054 39.6667 25.6387 39.4792 24.4998 39.1042C23.3609 38.7292 22.3054 38.1944 21.3332 37.5V39.6667C21.3332 40.1389 21.1734 40.5347 20.854 40.8542C20.5346 41.1736 20.1387 41.3333 19.6665 41.3333H11.3332ZM14.6665 29.6667C13.2776 29.6667 12.0971 29.1806 11.1248 28.2083C10.1526 27.2361 9.6665 26.0556 9.6665 24.6667C9.6665 23.25 10.1526 22.0625 11.1248 21.1042C12.0971 20.1458 13.2776 19.6667 14.6665 19.6667C16.0832 19.6667 17.2707 20.1458 18.229 21.1042C19.1873 22.0625 19.6665 23.25 19.6665 24.6667C19.6665 26.0556 19.1873 27.2361 18.229 28.2083C17.2707 29.1806 16.0832 29.6667 14.6665 29.6667ZM41.3332 29.6667C39.9443 29.6667 38.7637 29.1806 37.7915 28.2083C36.8193 27.2361 36.3332 26.0556 36.3332 24.6667C36.3332 23.25 36.8193 22.0625 37.7915 21.1042C38.7637 20.1458 39.9443 19.6667 41.3332 19.6667C42.7498 19.6667 43.9373 20.1458 44.8957 21.1042C45.854 22.0625 46.3332 23.25 46.3332 24.6667C46.3332 26.0556 45.854 27.2361 44.8957 28.2083C43.9373 29.1806 42.7498 29.6667 41.3332 29.6667Z" fill="#3866FB"/>
</g>
</svg>
