<svg width="56" height="56" viewBox="0 0 56 56" fill="none" xmlns="http://www.w3.org/2000/svg">
<rect width="56" height="56" rx="16" fill="#F9FAFF"/>
<mask id="mask0_3333_947" style="mask-type:alpha" maskUnits="userSpaceOnUse" x="8" y="8" width="40" height="40">
<rect x="8" y="8" width="40" height="40" fill="#D9D9D9"/>
</mask>
<g mask="url(#mask0_3333_947)">
<path d="M13.0002 43.0002C12.5279 43.0002 12.1321 42.8404 11.8127 42.521C11.4932 42.2015 11.3335 41.8057 11.3335 41.3335C11.3335 40.8613 11.4932 40.4654 11.8127 40.146C12.1321 39.8266 12.5279 39.6668 13.0002 39.6668H26.3335V21.0418C25.6113 20.7918 24.9863 20.4029 24.4585 19.8752C23.9307 19.3474 23.5418 18.7224 23.2918 18.0002H18.0002L22.5835 28.7502C22.7224 29.0557 22.8057 29.3682 22.8335 29.6877C22.8613 30.0071 22.8474 30.3335 22.7918 30.6668C22.5418 31.9446 21.8543 32.9307 20.7293 33.6252C19.6043 34.3196 18.4168 34.6668 17.1668 34.6668C15.9168 34.6668 14.7293 34.3196 13.6043 33.6252C12.4793 32.9307 11.7918 31.9446 11.5418 30.6668C11.4863 30.3335 11.4724 30.0071 11.5002 29.6877C11.5279 29.3682 11.6113 29.0557 11.7502 28.7502L16.3335 18.0002H14.6668C14.1946 18.0002 13.7988 17.8404 13.4793 17.521C13.1599 17.2016 13.0002 16.8057 13.0002 16.3335C13.0002 15.8613 13.1599 15.4654 13.4793 15.146C13.7988 14.8266 14.1946 14.6668 14.6668 14.6668H23.2918C23.6252 13.6946 24.2224 12.896 25.0835 12.271C25.9446 11.646 26.9168 11.3335 28.0002 11.3335C29.0835 11.3335 30.0557 11.646 30.9168 12.271C31.7779 12.896 32.3752 13.6946 32.7085 14.6668H41.3335C41.8057 14.6668 42.2015 14.8266 42.521 15.146C42.8404 15.4654 43.0002 15.8613 43.0002 16.3335C43.0002 16.8057 42.8404 17.2016 42.521 17.521C42.2015 17.8404 41.8057 18.0002 41.3335 18.0002H39.6668L44.2502 28.7502C44.389 29.0557 44.4724 29.3682 44.5002 29.6877C44.5279 30.0071 44.514 30.3335 44.4585 30.6668C44.2085 31.9446 43.521 32.9307 42.396 33.6252C41.271 34.3196 40.0835 34.6668 38.8335 34.6668C37.5835 34.6668 36.396 34.3196 35.271 33.6252C34.146 32.9307 33.4585 31.9446 33.2085 30.6668C33.1529 30.3335 33.1391 30.0071 33.1668 29.6877C33.1946 29.3682 33.2779 29.0557 33.4168 28.7502L38.0002 18.0002H32.7085C32.4585 18.7224 32.0696 19.3474 31.5418 19.8752C31.0141 20.4029 30.3891 20.7918 29.6668 21.0418V39.6668H43.0002C43.4724 39.6668 43.8682 39.8266 44.1877 40.146C44.5071 40.4654 44.6668 40.8613 44.6668 41.3335C44.6668 41.8057 44.5071 42.2015 44.1877 42.521C43.8682 42.8404 43.4724 43.0002 43.0002 43.0002H13.0002ZM35.7085 29.6668H41.9585L38.8335 22.4168L35.7085 29.6668ZM14.0418 29.6668H20.2918L17.1668 22.4168L14.0418 29.6668ZM28.0002 18.0002C28.4724 18.0002 28.8682 17.8404 29.1877 17.521C29.5071 17.2016 29.6668 16.8057 29.6668 16.3335C29.6668 15.8613 29.5071 15.4654 29.1877 15.146C28.8682 14.8266 28.4724 14.6668 28.0002 14.6668C27.5279 14.6668 27.1321 14.8266 26.8127 15.146C26.4932 15.4654 26.3335 15.8613 26.3335 16.3335C26.3335 16.8057 26.4932 17.2016 26.8127 17.521C27.1321 17.8404 27.5279 18.0002 28.0002 18.0002Z" fill="#3866FB"/>
</g>
</svg>
