<svg width="58" height="58" viewBox="0 0 58 58" fill="none" xmlns="http://www.w3.org/2000/svg">
<rect width="58" height="58" rx="16" fill="#F9FAFF"/>
<mask id="mask0_3333_949" style="mask-type:alpha" maskUnits="userSpaceOnUse" x="8" y="8" width="42" height="42">
<rect x="8" y="8" width="42" height="42" fill="#D9D9D9"/>
</mask>
<g mask="url(#mask0_3333_949)">
<path d="M44.75 30.7501H41.25C40.7542 30.7501 40.3385 30.5824 40.0031 30.247C39.6677 29.9116 39.5 29.496 39.5 29.0001C39.5 28.5043 39.6677 28.0887 40.0031 27.7533C40.3385 27.4178 40.7542 27.2501 41.25 27.2501H44.75C45.2458 27.2501 45.6615 27.4178 45.9969 27.7533C46.3323 28.0887 46.5 28.5043 46.5 29.0001C46.5 29.496 46.3323 29.9116 45.9969 30.247C45.6615 30.5824 45.2458 30.7501 44.75 30.7501ZM37.05 37.4001C37.3417 36.9918 37.7208 36.7585 38.1875 36.7001C38.6542 36.6418 39.0917 36.7585 39.5 37.0501L42.3 39.1501C42.7083 39.4418 42.9417 39.821 43 40.2876C43.0583 40.7543 42.9417 41.1918 42.65 41.6001C42.3583 42.0085 41.9792 42.2418 41.5125 42.3001C41.0458 42.3585 40.6083 42.2418 40.2 41.9501L37.4 39.8501C36.9917 39.5585 36.7583 39.1793 36.7 38.7126C36.6417 38.246 36.7583 37.8085 37.05 37.4001ZM42.3 18.8501L39.5 20.9501C39.0917 21.2418 38.6542 21.3585 38.1875 21.3001C37.7208 21.2418 37.3417 21.0085 37.05 20.6001C36.7583 20.1918 36.6417 19.7543 36.7 19.2876C36.7583 18.821 36.9917 18.4418 37.4 18.1501L40.2 16.0501C40.6083 15.7585 41.0458 15.6418 41.5125 15.7001C41.9792 15.7585 42.3583 15.9918 42.65 16.4001C42.9417 16.8085 43.0583 17.246 43 17.7126C42.9417 18.1793 42.7083 18.5585 42.3 18.8501ZM16.75 34.2501H15C14.0375 34.2501 13.2135 33.9074 12.5281 33.222C11.8427 32.5366 11.5 31.7126 11.5 30.7501V27.2501C11.5 26.2876 11.8427 25.4637 12.5281 24.7783C13.2135 24.0928 14.0375 23.7501 15 23.7501H22L28.0813 20.0751C28.6646 19.7251 29.2552 19.7251 29.8531 20.0751C30.451 20.4251 30.75 20.9355 30.75 21.6064V36.3939C30.75 37.0647 30.451 37.5751 29.8531 37.9251C29.2552 38.2751 28.6646 38.2751 28.0813 37.9251L22 34.2501H20.25V39.5001C20.25 39.996 20.0823 40.4116 19.7469 40.747C19.4115 41.0824 18.9958 41.2501 18.5 41.2501C18.0042 41.2501 17.5885 41.0824 17.2531 40.747C16.9177 40.4116 16.75 39.996 16.75 39.5001V34.2501ZM32.5 34.8626V23.1376C33.2875 23.8376 33.9219 24.6908 34.4031 25.697C34.8844 26.7033 35.125 27.8043 35.125 29.0001C35.125 30.196 34.8844 31.297 34.4031 32.3033C33.9219 33.3095 33.2875 34.1626 32.5 34.8626Z" fill="#3866FB"/>
</g>
</svg>
