<svg width="56" height="56" viewBox="0 0 56 56" fill="none" xmlns="http://www.w3.org/2000/svg">
<rect width="56" height="56" rx="16" fill="#F9FAFF"/>
<mask id="mask0_3333_950" style="mask-type:alpha" maskUnits="userSpaceOnUse" x="8" y="8" width="40" height="40">
<rect x="8" y="8" width="40" height="40" fill="#D9D9D9"/>
</mask>
<g mask="url(#mask0_3333_950)">
<path d="M21.3335 43V39.6667H14.6668C13.7502 39.6667 12.9654 39.3403 12.3127 38.6875C11.6599 38.0347 11.3335 37.25 11.3335 36.3333V16.3333C11.3335 15.4167 11.6599 14.6319 12.3127 13.9792C12.9654 13.3264 13.7502 13 14.6668 13H41.3335C42.2502 13 43.0349 13.3264 43.6877 13.9792C44.3404 14.6319 44.6668 15.4167 44.6668 16.3333V36.3333C44.6668 37.25 44.3404 38.0347 43.6877 38.6875C43.0349 39.3403 42.2502 39.6667 41.3335 39.6667H34.6668V43H21.3335ZM16.0002 26.3333L20.3335 22L18.0002 19.6667L11.3335 26.3333L18.0002 33L20.3335 30.6667L16.0002 26.3333ZM40.0002 26.3333L35.6668 30.6667L38.0002 33L44.6668 26.3333L38.0002 19.6667L35.6668 22L40.0002 26.3333Z" fill="#3866FB"/>
</g>
</svg>
