<svg width="431" height="293" viewBox="0 0 431 293" fill="none" xmlns="http://www.w3.org/2000/svg">
<path d="M145.798 109.703C155.298 92.7029 174.798 91.703 187.798 113.203C201.987 118.011 204.797 130.203 196.297 138.703L183.798 151.203C191.018 167.501 183.798 180.203 163.798 174.203H132.298C107.797 171.703 107.181 149.367 127.298 138.703C123.298 117.203 134.071 104.548 145.798 109.703Z" fill="#3866FB"/>
<path d="M156.615 130.893C153.036 120.444 138.903 132.127 155.111 139.495L151.25 157.421C153.39 160.471 154.663 162.084 159.473 161.591L164.341 149.904C178.329 153.956 183.312 151.191 184.837 136.874C191.974 138.585 193.971 130.013 184.918 122.443C186.578 129.244 173.593 130.868 167.432 126.71C164.476 131.875 162.292 133.567 157.563 134.779L156.615 130.893Z" fill="white"/>
<path d="M161 148.866C162.168 149.25 163.28 149.597 164.341 149.904M164.341 149.904C178.329 153.956 183.312 151.191 184.837 136.874C191.974 138.585 193.971 130.013 184.918 122.443C186.578 129.244 173.593 130.868 167.432 126.71C164.476 131.875 162.292 133.567 157.563 134.779L156.615 130.893C153.036 120.444 138.903 132.127 155.111 139.495L151.25 157.421C153.39 160.471 154.663 162.084 159.473 161.591L164.341 149.904Z" stroke="#20273E"/>
<path d="M180.179 139.605C179.279 141.105 177.521 141.106 177.1 140.106C176.679 139.105 176.714 138.606 177.1 137.605C177.679 136.105 179.52 135.106 180.6 136.105C181.679 137.105 180.779 138.605 180.179 139.605Z" fill="#20273E"/>
<path d="M168.297 142.703C169.363 144.569 170.52 144.897 172.797 145.203" stroke="#20273E"/>
<path d="M172.797 137.203C171.897 138.703 170.139 138.703 169.718 137.703C169.297 136.703 169.332 136.203 169.718 135.203C170.297 133.703 172.139 132.703 173.218 133.703C174.297 134.703 173.397 136.203 172.797 137.203Z" fill="#20273E"/>
<path d="M409 78.6841H239C279.5 78.6841 290.5 27.6839 316.5 50.1838C342.5 72.6836 344.275 17.3005 375.5 24.6831C416 34.2588 375.5 70.1831 409 78.6841Z" stroke="#20273E"/>
<path d="M299 211.517H229C245.676 211.517 250.206 190.517 260.912 199.782C271.618 209.046 272.349 186.241 285.206 189.281C301.882 193.224 285.206 208.017 299 211.517Z" stroke="#20273E"/>
<path d="M72 192.517H2C18.6765 192.517 23.2059 171.517 33.9118 180.782C44.6176 190.046 45.3487 167.241 58.2059 170.281C74.8824 174.224 58.2059 189.017 72 192.517Z" stroke="#20273E"/>
<path d="M234.194 38.0004C245.692 38 294.194 38.0004 294.194 38.0004C307.194 38.0004 306.694 58.0004 294.194 58.0004C294.194 58.0004 247.192 58.0004 234.194 58.0004C221.197 58.0004 222.697 38.0009 234.194 38.0004Z" fill="white"/>
<path d="M240.143 43.0002C241.286 45.0002 242.429 46.7145 245 48.1431C242.429 49.5717 241.286 50.7145 240.143 53.286C239 50.7145 238.143 49.5717 235 48.1431C238.143 46.7145 239 45.0002 240.143 43.0002Z" fill="url(#paint0_linear_3017_401)"/>
<path d="M252.143 43.0002C253.286 45.0002 254.429 46.7145 257 48.1431C254.429 49.5717 253.286 50.7145 252.143 53.286C251 50.7145 250.143 49.5717 247 48.1431C250.143 46.7145 251 45.0002 252.143 43.0002Z" fill="url(#paint1_linear_3017_401)"/>
<path d="M264.143 43.0002C265.286 45.0002 266.429 46.7145 269 48.1431C266.429 49.5717 265.286 50.7145 264.143 53.286C263 50.7145 262.143 49.5717 259 48.1431C262.143 46.7145 263 45.0002 264.143 43.0002Z" fill="url(#paint2_linear_3017_401)"/>
<path d="M276.143 43.0002C277.286 45.0002 278.429 46.7145 281 48.1431C278.429 49.5717 277.286 50.7145 276.143 53.286C275 50.7145 274.143 49.5717 271 48.1431C274.143 46.7145 275 45.0002 276.143 43.0002Z" fill="url(#paint3_linear_3017_401)"/>
<path d="M288.143 43.0002C289.286 45.0002 290.429 46.7145 293 48.1431C290.429 49.5717 289.286 50.7145 288.143 53.286C287 50.7145 286.143 49.5717 283 48.1431C286.143 46.7145 287 45.0002 288.143 43.0002Z" fill="url(#paint4_linear_3017_401)"/>
<path d="M234.194 38.0004C245.692 38 294.194 38.0004 294.194 38.0004C307.194 38.0004 306.694 58.0004 294.194 58.0004C294.194 58.0004 247.192 58.0004 234.194 58.0004C221.197 58.0004 222.697 38.0009 234.194 38.0004Z" stroke="#20273E"/>
<path d="M240.143 43.0002C241.286 45.0002 242.429 46.7145 245 48.1431C242.429 49.5717 241.286 50.7145 240.143 53.286C239 50.7145 238.143 49.5717 235 48.1431C238.143 46.7145 239 45.0002 240.143 43.0002Z" stroke="#20273E"/>
<path d="M252.143 43.0002C253.286 45.0002 254.429 46.7145 257 48.1431C254.429 49.5717 253.286 50.7145 252.143 53.286C251 50.7145 250.143 49.5717 247 48.1431C250.143 46.7145 251 45.0002 252.143 43.0002Z" stroke="#20273E"/>
<path d="M264.143 43.0002C265.286 45.0002 266.429 46.7145 269 48.1431C266.429 49.5717 265.286 50.7145 264.143 53.286C263 50.7145 262.143 49.5717 259 48.1431C262.143 46.7145 263 45.0002 264.143 43.0002Z" stroke="#20273E"/>
<path d="M276.143 43.0002C277.286 45.0002 278.429 46.7145 281 48.1431C278.429 49.5717 277.286 50.7145 276.143 53.286C275 50.7145 274.143 49.5717 271 48.1431C274.143 46.7145 275 45.0002 276.143 43.0002Z" stroke="#20273E"/>
<path d="M288.143 43.0002C289.286 45.0002 290.429 46.7145 293 48.1431C290.429 49.5717 289.286 50.7145 288.143 53.286C287 50.7145 286.143 49.5717 283 48.1431C286.143 46.7145 287 45.0002 288.143 43.0002Z" stroke="#20273E"/>
<path d="M76.1585 1.73452L2 123.33C6.77144 132.174 10.9509 134.51 22.3974 131.634C48.9586 84.0211 65.033 57.9809 100.252 15.1702C99.8972 8.99582 82.8717 -1.93049 76.1585 1.73452Z" fill="white"/>
<path d="M4.98129 144.557L17.9813 96.5568L24.9813 106.557L31.9813 96.5568L29.9813 152.057L18.9813 129.557L4.98129 144.557Z" fill="#20273E"/>
<path d="M24.1331 66.415C24.5247 65.7879 25.4379 65.7879 25.8295 66.415L30.6995 74.2132C30.8757 74.4953 31.1806 74.6714 31.513 74.6829L40.7015 75.0013C41.4403 75.0269 41.8969 75.8177 41.5497 76.4704L37.2312 84.5871C37.075 84.8807 37.075 85.2328 37.2312 85.5265L41.5497 93.6431C41.8969 94.2958 41.4403 95.0866 40.7015 95.1122L31.513 95.4307C31.1806 95.4422 30.8757 95.6182 30.6995 95.9004L25.8295 103.699C25.4379 104.326 24.5247 104.326 24.1331 103.699L19.2631 95.9004C19.0869 95.6182 18.782 95.4422 18.4496 95.4307L9.2611 95.1122C8.52223 95.0866 8.06565 94.2958 8.41291 93.6431L12.7314 85.5265C12.8876 85.2328 12.8876 84.8807 12.7314 84.5871L8.41291 76.4704C8.06565 75.8177 8.52223 75.0269 9.2611 75.0013L18.4496 74.6829C18.782 74.6714 19.0869 74.4953 19.2631 74.2132L24.1331 66.415Z" fill="#3866FB"/>
<path d="M75.9189 1.29566L75.8013 1.35984L75.7316 1.47418L31.4012 74.1616C31.2874 74.1267 31.1882 74.0518 31.1236 73.9483L26.2536 66.1501C25.6662 65.2095 24.2964 65.2095 23.709 66.1501L18.839 73.9483C18.7509 74.0894 18.5985 74.1774 18.4322 74.1832L9.24378 74.5016C8.13548 74.54 7.45061 75.7263 7.9715 76.7053L12.29 84.8219C12.3681 84.9688 12.3681 85.1448 12.29 85.2916L7.9715 93.4083C7.45061 94.3873 8.13548 95.5735 9.24378 95.6119L17.6404 95.9029L17.4987 96.4261L17.2399 97.3815L1.57312 123.07L1.42364 123.315L1.55996 123.568C3.56759 127.289 5.51124 129.945 7.99052 131.533L4.49867 144.426L5.34681 144.898L16.2335 133.234C17.3834 133.145 18.6208 132.965 19.9606 132.698L29.5321 152.276L30.481 152.075L31.7818 115.976C53.4115 77.9555 69.5674 53.256 100.638 15.4878L100.762 15.3368L100.751 15.1415C100.651 13.4101 99.4101 11.4574 97.6434 9.60552C95.8552 7.73104 93.4459 5.87369 90.8445 4.33242C88.2437 2.79152 85.428 1.55297 82.821 0.932964C80.2309 0.316996 77.7588 0.291207 75.9189 1.29566Z" stroke="#20273E"/>
<path d="M363.648 168H290.408C289.631 168 289 167.369 289 166.592V69.4085C289 68.6306 289.631 68 290.408 68H346.042L365.056 89.1268V166.592C365.056 167.369 364.426 168 363.648 168Z" fill="white"/>
<path d="M346.042 68H290.408C289.631 68 289 68.6306 289 69.4085V166.592C289 167.369 289.631 168 290.408 168H363.648C364.426 168 365.056 167.369 365.056 166.592V89.1268M346.042 68L365.056 89.1268M346.042 68V87.7183C346.042 88.4962 346.673 89.1268 347.451 89.1268H365.056M301.676 101.803L304.201 104.328C304.751 104.878 305.643 104.878 306.193 104.328L311.535 98.9859M315.761 102.507H343.93M301.676 116.008L304.201 118.533C304.751 119.083 305.643 119.083 306.193 118.533L311.535 113.191M315.761 116.712H343.93M301.676 130.213L304.201 132.739C304.751 133.289 305.643 133.289 306.193 132.739L311.535 127.397M315.761 130.918H343.93M301.676 144.419L304.201 146.944C304.751 147.494 305.643 147.494 306.193 146.944L311.535 141.602M315.761 145.123H343.93" stroke="#20273E"/>
<rect x="380" y="69" width="50" height="50" rx="25" fill="url(#paint5_linear_3017_401)"/>
<path d="M404.88 102C404.947 102 405.013 101.983 405.08 101.95C405.147 101.917 405.197 101.883 405.23 101.85L413.43 93.65C413.63 93.45 413.776 93.225 413.868 92.975C413.959 92.725 414.005 92.475 414.005 92.225C414.005 91.9583 413.959 91.7042 413.868 91.4625C413.776 91.2208 413.63 91.0083 413.43 90.825L409.18 86.575C408.997 86.375 408.784 86.2292 408.543 86.1375C408.301 86.0458 408.047 86 407.78 86C407.53 86 407.28 86.0458 407.03 86.1375C406.78 86.2292 406.555 86.375 406.355 86.575L406.08 86.85L407.93 88.725C408.18 88.9583 408.363 89.225 408.48 89.525C408.597 89.825 408.655 90.1417 408.655 90.475C408.655 91.175 408.418 91.7625 407.943 92.2375C407.468 92.7125 406.88 92.95 406.18 92.95C405.847 92.95 405.526 92.8917 405.218 92.775C404.909 92.6583 404.638 92.4833 404.405 92.25L402.53 90.4L398.155 94.775C398.105 94.825 398.068 94.8792 398.043 94.9375C398.018 94.9958 398.005 95.0583 398.005 95.125C398.005 95.2583 398.055 95.3792 398.155 95.4875C398.255 95.5958 398.372 95.65 398.505 95.65C398.572 95.65 398.638 95.6333 398.705 95.6C398.772 95.5667 398.822 95.5333 398.855 95.5L402.255 92.1L403.655 93.5L400.28 96.9C400.23 96.95 400.193 97.0042 400.168 97.0625C400.143 97.1208 400.13 97.1833 400.13 97.25C400.13 97.3833 400.18 97.5 400.28 97.6C400.38 97.7 400.497 97.75 400.63 97.75C400.697 97.75 400.763 97.7333 400.83 97.7C400.897 97.6667 400.947 97.6333 400.98 97.6L404.38 94.225L405.78 95.625L402.405 99.025C402.355 99.0583 402.318 99.1083 402.293 99.175C402.268 99.2417 402.255 99.3083 402.255 99.375C402.255 99.5083 402.305 99.625 402.405 99.725C402.505 99.825 402.622 99.875 402.755 99.875C402.822 99.875 402.884 99.8625 402.943 99.8375C403.001 99.8125 403.055 99.775 403.105 99.725L406.505 96.35L407.905 97.75L404.505 101.15C404.455 101.2 404.418 101.254 404.393 101.312C404.368 101.371 404.355 101.433 404.355 101.5C404.355 101.633 404.409 101.75 404.518 101.85C404.626 101.95 404.747 102 404.88 102ZM404.855 104C404.238 104 403.693 103.796 403.218 103.388C402.743 102.979 402.463 102.467 402.38 101.85C401.813 101.767 401.338 101.533 400.955 101.15C400.572 100.767 400.338 100.292 400.255 99.725C399.688 99.6417 399.218 99.4042 398.843 99.0125C398.468 98.6208 398.238 98.15 398.155 97.6C397.522 97.5167 397.005 97.2417 396.605 96.775C396.205 96.3083 396.005 95.7583 396.005 95.125C396.005 94.7917 396.068 94.4708 396.193 94.1625C396.318 93.8542 396.497 93.5833 396.73 93.35L402.53 87.575L405.805 90.85C405.838 90.9 405.888 90.9375 405.955 90.9625C406.022 90.9875 406.088 91 406.155 91C406.305 91 406.43 90.9542 406.53 90.8625C406.63 90.7708 406.68 90.65 406.68 90.5C406.68 90.4333 406.668 90.3667 406.643 90.3C406.618 90.2333 406.58 90.1833 406.53 90.15L402.955 86.575C402.772 86.375 402.559 86.2292 402.318 86.1375C402.076 86.0458 401.822 86 401.555 86C401.305 86 401.055 86.0458 400.805 86.1375C400.555 86.2292 400.33 86.375 400.13 86.575L396.605 90.125C396.455 90.275 396.33 90.45 396.23 90.65C396.13 90.85 396.063 91.05 396.03 91.25C395.997 91.45 395.997 91.6542 396.03 91.8625C396.063 92.0708 396.13 92.2667 396.23 92.45L394.78 93.9C394.497 93.5167 394.288 93.0958 394.155 92.6375C394.022 92.1792 393.972 91.7167 394.005 91.25C394.038 90.7833 394.155 90.3292 394.355 89.8875C394.555 89.4458 394.83 89.05 395.18 88.7L398.705 85.175C399.105 84.7917 399.551 84.5 400.043 84.3C400.534 84.1 401.038 84 401.555 84C402.072 84 402.576 84.1 403.068 84.3C403.559 84.5 403.997 84.7917 404.38 85.175L404.655 85.45L404.93 85.175C405.33 84.7917 405.776 84.5 406.268 84.3C406.759 84.1 407.263 84 407.78 84C408.297 84 408.801 84.1 409.293 84.3C409.784 84.5 410.222 84.7917 410.605 85.175L414.83 89.4C415.213 89.7833 415.505 90.225 415.705 90.725C415.905 91.225 416.005 91.7333 416.005 92.25C416.005 92.7667 415.905 93.2708 415.705 93.7625C415.505 94.2542 415.213 94.6917 414.83 95.075L406.63 103.25C406.397 103.483 406.126 103.667 405.818 103.8C405.509 103.933 405.188 104 404.855 104Z" fill="white"/>
<path d="M36.2905 57.8379C33.0836 59.41 32.6243 60.9105 33.2273 64.2502C36.1586 66.9695 37.1961 67.8385 39.1438 69.4938C42.4422 69.5244 43.705 68.8247 43.6539 64.7864C41.4249 61.585 40.438 59.5918 36.2905 57.8379Z" fill="#F9FAFF"/>
<path d="M39.1438 50.2188C35.9369 51.7909 35.4776 53.2914 36.0806 56.6311C39.0119 59.3504 40.0494 60.2194 41.9971 61.8747C45.2955 61.9053 46.5583 61.2055 46.5071 57.1673C44.2782 53.9659 43.2913 51.9727 39.1438 50.2188Z" fill="#F9FAFF"/>
<path d="M44.0463 43.9485C40.8395 45.5207 40.3801 47.0211 40.9832 50.3608C43.9144 53.0802 44.9519 53.9491 46.8996 55.6044C50.198 55.635 51.4608 54.9353 51.4097 50.897C49.1807 47.6956 48.1939 45.7024 44.0463 43.9485Z" fill="#F9FAFF"/>
<path d="M48.4125 37C45.2057 38.5721 44.7463 40.0726 45.3494 43.4123C48.2807 46.1316 49.3181 47.0006 51.2659 48.6558C54.5642 48.6864 55.827 47.9867 55.7759 43.9485C53.5469 40.7471 52.5601 38.7539 48.4125 37Z" fill="#F9FAFF"/>
<path d="M161.729 159.341C161.819 159.416 161.908 159.494 162.004 159.561L183.002 174.224C183.615 174.652 184.416 174.702 185.077 174.355L223.622 154.114L249.804 171.578C250.884 172.364 250.889 173.936 249.896 174.743C249.736 174.873 249.568 175.001 249.431 175.154C232.781 193.659 220.271 201.708 195.575 212.796C194.674 213.2 194.192 214.204 194.453 215.156L209.144 268.911C209.359 269.698 209.075 270.539 208.418 271.023C193.234 282.241 177.137 287.277 161.859 290C150.073 292.101 138.959 292.244 124.5 290C103.406 286.727 85.0105 282.169 66.5663 265.951C65.9266 265.388 65.7228 264.474 66.0551 263.69L91.5239 203.58C91.6854 203.125 91.6769 202.627 91.5001 202.178L48.4125 95C48.2883 94.6845 54.8308 87.7108 54.8751 87.3746C54.8751 87.3746 54.8751 87.3746 54.7657 86.7802C54.4363 84.9913 51.6055 84.9458 52.4302 83.3244C53.028 82.1491 53.8596 80.6151 53.9636 80.3746L60.0463 66.3743C56.2736 68.3743 52.7736 63.8743 56.2736 60.3743C59.7736 56.8743 65.0553 50.6694 72.7736 52.8746C83.2736 55.8746 77.2741 63.3743 77.2741 63.3743L83.8525 55.7388C84.9008 54.522 86.8834 54.9749 87.2994 56.5261L112.876 151.892C113.111 152.767 113.903 153.374 114.808 153.374H150.676C151.36 153.374 151.996 153.724 152.363 154.301L155.274 158.874H160.445C160.917 158.874 161.371 159.041 161.729 159.341Z" fill="#F9FAFF"/>
<path d="M258.5 150.5C261.5 151 262 152.688 262 155C262 155 261.198 157.565 259.5 159.5M258.5 150.5C255.5 150 251.558 155.029 253.5 158.5C254.898 161 258 160.5 259.5 159.5M258.5 150.5C258.5 147.254 256.5 144 252 145.378M258.5 150.5C254.728 151.547 254.083 152.509 252.5 156.5C248.792 156.838 246.5 154.114 247.5 150M259.5 159.5C256 167.5 249.804 171.578 249.804 171.578M252 145.378C249.722 146.753 248.775 147.792 247.5 150M252 145.378C254.519 142.241 248.756 138.802 246 139.975M247.5 150C245.696 151.5 242 150 242 145.801C242 144 243.244 141.148 246 139.975M246 139.975C247.206 138.261 253.371 131.033 254.743 126.5C255.176 122.383 250.971 122.875 250.971 122.875C246.031 123.627 236.598 140.816 234.5 144C240.138 130.99 233 133 227.885 139.975C222.136 147.814 223.622 154.114 223.622 154.114M249.804 171.578L223.622 154.114M249.804 171.578C250.884 172.364 250.889 173.936 249.896 174.743C249.736 174.873 249.568 175.001 249.431 175.154C232.781 193.659 220.271 201.708 195.575 212.796C194.674 213.2 194.192 214.204 194.453 215.156L209.144 268.911C209.359 269.698 209.075 270.539 208.418 271.023C193.234 282.241 177.137 287.277 161.859 290M223.622 154.114L185.077 174.355C184.416 174.702 183.615 174.652 183.002 174.224L162.004 159.561C161.908 159.494 161.819 159.416 161.729 159.341C161.371 159.041 160.917 158.874 160.445 158.874H155.274M161.859 290L155.274 158.874M161.859 290C150.073 292.101 138.959 292.244 124.5 290M155.274 158.874L152.363 154.301C151.996 153.724 151.36 153.374 150.676 153.374H114.808C113.903 153.374 113.111 152.767 112.876 151.892L87.2994 56.5261C86.8834 54.9749 84.9008 54.522 83.8525 55.7388L77.2741 63.3743M155.274 158.874L124.5 290M124.5 290C103.406 286.727 85.0105 282.169 66.5663 265.951C65.9266 265.388 65.7228 264.474 66.0551 263.69L91.5239 203.58C91.6854 203.125 91.6769 202.627 91.5001 202.178L48.4125 95C48.2883 94.6845 54.8308 87.7108 54.8751 87.3746M54.8751 87.3746C54.8751 87.3746 54.8751 87.3746 54.7657 86.7802C54.4363 84.9913 51.6055 84.9458 52.4302 83.3244C53.028 82.1491 53.8596 80.6151 53.9636 80.3746L60.0463 66.3743M54.8751 87.3746L77.2741 63.3743M60.0463 66.3743L66.4699 61.8743M60.0463 66.3743C56.2736 68.3743 52.7736 63.8743 56.2736 60.3743C59.7736 56.8743 65.0553 50.6694 72.7736 52.8746C83.2736 55.8746 77.2741 63.3743 77.2741 63.3743M33.2273 64.2502C32.6243 60.9105 33.0836 59.41 36.2905 57.8379C40.438 59.5918 41.4249 61.585 43.6539 64.7864C43.705 68.8247 42.4422 69.5244 39.1438 69.4938C37.1961 67.8385 36.1586 66.9695 33.2273 64.2502ZM36.0806 56.6311C35.4776 53.2914 35.9369 51.7909 39.1438 50.2188C43.2913 51.9727 44.2782 53.9659 46.5071 57.1673C46.5583 61.2055 45.2955 61.9053 41.9971 61.8747C40.0494 60.2194 39.0119 59.3504 36.0806 56.6311ZM40.9832 50.3608C40.3801 47.0211 40.8395 45.5207 44.0463 43.9485C48.1939 45.7024 49.1807 47.6956 51.4097 50.897C51.4608 54.9353 50.198 55.635 46.8996 55.6044C44.9519 53.9491 43.9144 53.0802 40.9832 50.3608ZM45.3494 43.4123C44.7463 40.0726 45.2057 38.5721 48.4125 37C52.5601 38.7539 53.5469 40.7471 55.7759 43.9485C55.827 47.9867 54.5642 48.6864 51.2659 48.6558C49.3181 47.0006 48.2807 46.1316 45.3494 43.4123Z" stroke="black"/>
<path d="M192.732 105.844L159.287 114.431C159.112 114.476 158.927 114.473 158.754 114.421L143.019 109.75C148.019 111.234 133.019 109.75 133.019 126L131.519 130L130.946 131.721C130.775 132.232 130.019 132.11 130.019 131.57C130.019 131.1 129.409 130.915 129.148 131.307L127.316 134.055C127.13 134.333 126.813 134.502 126.498 134.39C125.737 134.122 124.374 133.195 124.019 130C123.519 125.5 133.019 126 133.019 126C130.019 119 135.519 111.5 143.019 109.75L130.486 106.029C129.513 105.74 129.539 104.354 130.522 104.102L165.734 95.0731C165.92 95.0254 166.116 95.0323 166.298 95.0931L192.799 103.927C193.745 104.242 193.698 105.596 192.732 105.844Z" fill="#20273E"/>
<path d="M354 146.568V192.04C354 192.906 354.702 193.608 355.568 193.608H360.272C361.138 193.608 361.84 194.31 361.84 195.176V203.429C361.84 204.784 363.443 205.501 364.454 204.597L376.29 194.007C376.577 193.75 376.949 193.608 377.335 193.608H428.48C429.346 193.608 430.048 192.906 430.048 192.04V146.568C430.048 145.702 429.346 145 428.48 145H355.568C354.702 145 354 145.702 354 146.568Z" fill="#F9FAFF"/>
<path d="M376.736 169.304H368.896V184.984H376.736V169.304Z" fill="#3866FB"/>
<path d="M389.28 155.976H381.44V184.984H389.28V155.976Z" fill="#3866FB"/>
<path d="M401.824 164.6H393.984V184.984H401.824V164.6Z" fill="#3866FB"/>
<path d="M414.368 155.976H406.528V184.984H414.368V155.976Z" fill="#3866FB"/>
<path d="M354 146.568V192.04C354 192.906 354.702 193.608 355.568 193.608H360.272C361.138 193.608 361.84 194.31 361.84 195.176V203.429C361.84 204.784 363.443 205.501 364.454 204.597L376.29 194.007C376.577 193.75 376.949 193.608 377.335 193.608H428.48C429.346 193.608 430.048 192.906 430.048 192.04V146.568C430.048 145.702 429.346 145 428.48 145H355.568C354.702 145 354 145.702 354 146.568Z" stroke="#20273E"/>
<path d="M376.736 169.304H368.896V184.984H376.736V169.304Z" stroke="#20273E"/>
<path d="M389.28 155.976H381.44V184.984H389.28V155.976Z" stroke="#20273E"/>
<path d="M401.824 164.6H393.984V184.984H401.824V164.6Z" stroke="#20273E"/>
<path d="M414.368 155.976H406.528V184.984H414.368V155.976Z" stroke="#20273E"/>
<defs>
<linearGradient id="paint0_linear_3017_401" x1="285.571" y1="48.1431" x2="293.286" y2="48.1431" gradientUnits="userSpaceOnUse">
<stop stop-color="#1847E2"/>
<stop offset="1" stop-color="#D9FF6B"/>
</linearGradient>
<linearGradient id="paint1_linear_3017_401" x1="285.571" y1="48.1431" x2="293.286" y2="48.1431" gradientUnits="userSpaceOnUse">
<stop stop-color="#1847E2"/>
<stop offset="1" stop-color="#D9FF6B"/>
</linearGradient>
<linearGradient id="paint2_linear_3017_401" x1="285.571" y1="48.1431" x2="293.286" y2="48.1431" gradientUnits="userSpaceOnUse">
<stop stop-color="#1847E2"/>
<stop offset="1" stop-color="#D9FF6B"/>
</linearGradient>
<linearGradient id="paint3_linear_3017_401" x1="285.571" y1="48.1431" x2="293.286" y2="48.1431" gradientUnits="userSpaceOnUse">
<stop stop-color="#1847E2"/>
<stop offset="1" stop-color="#D9FF6B"/>
</linearGradient>
<linearGradient id="paint4_linear_3017_401" x1="285.571" y1="48.1431" x2="293.286" y2="48.1431" gradientUnits="userSpaceOnUse">
<stop stop-color="#1847E2"/>
<stop offset="1" stop-color="#D9FF6B"/>
</linearGradient>
<linearGradient id="paint5_linear_3017_401" x1="436" y1="89" x2="391" y2="100" gradientUnits="userSpaceOnUse">
<stop offset="0.00520833" stop-color="#D9FF6B"/>
<stop offset="1" stop-color="#7A98FB"/>
</linearGradient>
</defs>
</svg>
