<svg width="56" height="56" viewBox="0 0 56 56" fill="none" xmlns="http://www.w3.org/2000/svg">
<rect width="56" height="56" transform="matrix(0 1 -1 0 56 0)" fill="#C1C5D5"/>
<mask id="mask0_2407_633" style="mask-type:alpha" maskUnits="userSpaceOnUse" x="0" y="0" width="56" height="56">
<rect x="56" width="56" height="56" transform="rotate(90 56 0)" fill="#D9D9D9"/>
</mask>
<g mask="url(#mask0_2407_633)">
<path d="M9.33368 44.3333C9.33368 43.6721 9.58645 43.118 10.092 42.6708C10.5976 42.2235 11.2003 41.961 11.9003 41.8833C15.9059 41.5721 19.6587 40.5902 23.1587 38.9374C26.6587 37.2846 29.7406 35.1263 32.4045 32.4624C35.0684 29.7985 37.2365 26.7166 38.9087 23.2166C40.5809 19.7166 41.5726 15.9833 41.8837 12.0166C41.9615 11.3166 42.224 10.6944 42.6712 10.1499C43.1184 9.60547 43.6726 9.33325 44.3337 9.33325C44.9948 9.33325 45.549 9.57631 45.9962 10.0624C46.4434 10.5485 46.6476 11.1221 46.6087 11.7833C46.2976 16.4499 45.1795 20.8346 43.2545 24.9374C41.3295 29.0402 38.8115 32.6471 35.7003 35.7583C32.5892 38.8694 28.9726 41.3874 24.8503 43.3124C20.7281 45.2374 16.3337 46.336 11.667 46.6083C11.0059 46.6471 10.4517 46.443 10.0045 45.9958C9.55729 45.5485 9.33368 44.9944 9.33368 44.3333Z" fill="url(#paint0_radial_2407_633)"/>
</g>
<defs>
<radialGradient id="paint0_radial_2407_633" cx="0" cy="0" r="1" gradientUnits="userSpaceOnUse" gradientTransform="translate(8.99999 79.2) rotate(-61.5258) scale(67.1193)">
<stop stop-color="#EDEFF4"/>
<stop offset="1" stop-color="white"/>
</radialGradient>
</defs>
</svg>
