<svg width="52" height="52" viewBox="0 0 52 52" fill="none" xmlns="http://www.w3.org/2000/svg">
<rect width="52" height="52" transform="matrix(0 1 -1 0 52 0)" fill="#3866FB"/>
<mask id="mask0_2794_606" style="mask-type:alpha" maskUnits="userSpaceOnUse" x="2" y="0" width="48" height="48">
<rect x="50" width="48" height="48" transform="rotate(90 50 0)" fill="#D9D9D9"/>
</mask>
<g mask="url(#mask0_2794_606)">
<path d="M8.66698 41.1667C8.66698 40.5529 8.9017 40.0383 9.37115 39.623C9.84059 39.2077 10.4003 38.964 11.0503 38.8917C14.7698 38.6029 18.2545 37.6911 21.5045 36.1563C24.7545 34.6216 27.6163 32.6174 30.0899 30.1438C32.5635 27.6702 34.5767 24.8084 36.1295 21.5584C37.6823 18.3084 38.6031 14.8417 38.892 11.1584C38.9642 10.5084 39.208 9.93064 39.6232 9.42508C40.0385 8.91953 40.5531 8.66675 41.167 8.66675C41.7809 8.66675 42.2955 8.89244 42.7107 9.34383C43.126 9.79522 43.3156 10.3279 43.2795 10.9417C42.9906 15.2751 41.9524 19.3466 40.1649 23.1563C38.3774 26.9661 36.0392 30.3154 33.1503 33.2042C30.2614 36.0931 26.9031 38.4313 23.0753 40.2188C19.2475 42.0063 15.167 43.0265 10.8336 43.2792C10.2198 43.3154 9.70518 43.1258 9.2899 42.7105C8.87462 42.2952 8.66698 41.7806 8.66698 41.1667Z" fill="url(#paint0_radial_2794_606)"/>
</g>
<defs>
<radialGradient id="paint0_radial_2794_606" cx="0" cy="0" r="1" gradientUnits="userSpaceOnUse" gradientTransform="translate(8.35713 73.543) rotate(-61.5258) scale(62.3251)">
<stop stop-color="#3866FB"/>
<stop offset="1" stop-color="white"/>
</radialGradient>
</defs>
</svg>
