<svg width="232" height="52" viewBox="0 0 232 52" fill="none" xmlns="http://www.w3.org/2000/svg">
<path d="M19.952 39.98C18.144 39.98 16.656 39.692 15.488 39.116C14.32 38.524 13.4 37.732 12.728 36.74C12.056 35.748 11.584 34.644 11.312 33.428C11.04 32.212 10.904 30.98 10.904 29.732C10.904 29.156 10.904 28.548 10.904 27.908C10.904 27.268 10.904 26.612 10.904 25.94V14.012H18.344V24.764C18.344 25.308 18.344 25.836 18.344 26.348C18.344 26.86 18.344 27.332 18.344 27.764C18.344 28.836 18.464 29.82 18.704 30.716C18.944 31.612 19.384 32.332 20.024 32.876C20.68 33.42 21.608 33.692 22.808 33.692C23.976 33.692 24.968 33.364 25.784 32.708C26.6 32.036 27.224 31.18 27.656 30.14C28.088 29.1 28.304 28.028 28.304 26.924L30.392 28.628C30.392 30.228 30.144 31.716 29.648 33.092C29.168 34.468 28.48 35.676 27.584 36.716C26.688 37.74 25.592 38.54 24.296 39.116C23.016 39.692 21.568 39.98 19.952 39.98ZM28.304 39.5V14.012H35.744V39.5H28.304ZM41.3259 49.988V14.012H48.7899V49.988H41.3259ZM56.6619 40.076C54.6459 40.076 52.7979 39.54 51.1179 38.468C49.4379 37.38 48.0939 35.924 47.0859 34.1C46.0779 32.26 45.5739 30.196 45.5739 27.908C45.5739 27.844 45.5739 27.788 45.5739 27.74C45.5739 27.676 45.5739 27.604 45.5739 27.524L48.7899 27.452C48.7899 27.5 48.7899 27.548 48.7899 27.596C48.7899 27.644 48.7899 27.692 48.7899 27.74C48.7899 28.924 49.0779 29.964 49.6539 30.86C50.2299 31.74 50.9739 32.42 51.8859 32.9C52.7979 33.38 53.7499 33.62 54.7419 33.62C56.3739 33.62 57.7899 33.06 58.9899 31.94C60.2059 30.804 60.8139 29.036 60.8139 26.636C60.8139 24.236 60.2139 22.492 59.0139 21.404C57.8139 20.3 56.3899 19.748 54.7419 19.748C53.7499 19.748 52.7979 19.988 51.8859 20.468C50.9739 20.932 50.2299 21.596 49.6539 22.46C49.0779 23.324 48.7899 24.356 48.7899 25.556L45.5739 25.364C45.5739 23.06 46.0779 21.028 47.0859 19.268C48.0939 17.492 49.4379 16.092 51.1179 15.068C52.7979 14.044 54.6459 13.532 56.6619 13.532C58.7259 13.532 60.6539 14.044 62.4459 15.068C64.2379 16.076 65.6859 17.556 66.7899 19.508C67.9099 21.46 68.4699 23.836 68.4699 26.636C68.4699 29.564 67.9259 32.028 66.8379 34.028C65.7499 36.028 64.3099 37.54 62.5179 38.564C60.7259 39.572 58.7739 40.076 56.6619 40.076ZM83.7151 40.076C82.1951 40.076 80.7311 39.9 79.3231 39.548C77.9151 39.196 76.6511 38.676 75.5311 37.988C74.4271 37.3 73.5471 36.444 72.8911 35.42C72.2511 34.38 71.9311 33.172 71.9311 31.796C71.9311 31.732 71.9311 31.66 71.9311 31.58C71.9311 31.484 71.9311 31.412 71.9311 31.364H79.3231C79.3231 31.412 79.3231 31.468 79.3231 31.532C79.3231 31.58 79.3231 31.636 79.3231 31.7C79.3231 32.628 79.7311 33.308 80.5471 33.74C81.3791 34.172 82.4991 34.388 83.9071 34.388C84.6431 34.388 85.3471 34.316 86.0191 34.172C86.7071 34.012 87.2671 33.764 87.6991 33.428C88.1471 33.076 88.3711 32.636 88.3711 32.108C88.3711 31.26 87.8991 30.66 86.9551 30.308C86.0271 29.956 84.5311 29.604 82.4671 29.252C81.2991 29.06 80.1151 28.788 78.9151 28.436C77.7151 28.084 76.6111 27.62 75.6031 27.044C74.5951 26.452 73.7871 25.708 73.1791 24.812C72.5711 23.9 72.2671 22.796 72.2671 21.5C72.2671 19.772 72.7871 18.316 73.8271 17.132C74.8831 15.948 76.2831 15.052 78.0271 14.444C79.7711 13.836 81.6911 13.532 83.7871 13.532C85.7871 13.532 87.6511 13.868 89.3791 14.54C91.1071 15.196 92.5071 16.148 93.5791 17.396C94.6511 18.628 95.1871 20.116 95.1871 21.86C95.1871 21.892 95.1871 21.94 95.1871 22.004C95.1871 22.068 95.1871 22.132 95.1871 22.196H87.8671C87.8671 22.132 87.8671 22.076 87.8671 22.028C87.8671 21.98 87.8671 21.94 87.8671 21.908C87.8671 21.268 87.6591 20.748 87.2431 20.348C86.8431 19.948 86.3311 19.652 85.7071 19.46C85.0831 19.252 84.4351 19.148 83.7631 19.148C83.1551 19.148 82.5231 19.22 81.8671 19.364C81.2271 19.492 80.6831 19.716 80.2351 20.036C79.7871 20.34 79.5631 20.772 79.5631 21.332C79.5631 21.876 79.8031 22.324 80.2831 22.676C80.7631 23.012 81.4351 23.292 82.2991 23.516C83.1631 23.724 84.1631 23.924 85.2991 24.116C86.3711 24.292 87.4991 24.54 88.6831 24.86C89.8831 25.164 91.0031 25.604 92.0431 26.18C93.0991 26.74 93.9471 27.484 94.5871 28.412C95.2431 29.324 95.5711 30.484 95.5711 31.892C95.5711 33.348 95.2351 34.596 94.5631 35.636C93.8911 36.676 92.9791 37.524 91.8271 38.18C90.6911 38.82 89.4191 39.292 88.0111 39.596C86.6191 39.916 85.1871 40.076 83.7151 40.076ZM120.276 39.5L114.948 14.012H120.372L125.724 37.388L124.5 37.436L127.836 14.012H135.516L130.428 39.5H120.276ZM102.564 39.5L97.4761 14.012H105.156L108.492 37.436L107.292 37.388L112.596 14.012H118.02L112.74 39.5H102.564ZM138.772 39.5V14.012H146.14V39.5H138.772ZM142.444 9.86C141.292 9.86 140.284 9.556 139.42 8.948C138.572 8.34 138.148 7.484 138.148 6.38C138.148 5.26 138.572 4.396 139.42 3.788C140.284 3.18 141.292 2.876 142.444 2.876C143.612 2.876 144.62 3.18 145.468 3.788C146.332 4.396 146.764 5.26 146.764 6.38C146.764 7.5 146.332 8.364 145.468 8.972C144.62 9.564 143.612 9.86 142.444 9.86ZM169.575 39.5V28.676C169.575 28.068 169.575 27.516 169.575 27.02C169.575 26.524 169.575 26.076 169.575 25.676C169.575 24.62 169.439 23.66 169.167 22.796C168.895 21.916 168.407 21.212 167.703 20.684C166.999 20.156 165.983 19.892 164.655 19.892C163.503 19.892 162.503 20.156 161.655 20.684C160.823 21.212 160.183 21.948 159.735 22.892C159.287 23.836 159.063 24.924 159.063 26.156L156.999 24.668C156.999 22.46 157.479 20.524 158.439 18.86C159.399 17.196 160.695 15.892 162.327 14.948C163.975 14.004 165.799 13.532 167.799 13.532C169.895 13.532 171.615 13.956 172.959 14.804C174.319 15.636 175.327 16.804 175.983 18.308C176.655 19.796 176.991 21.54 176.991 23.54C176.991 24.356 176.991 25.268 176.991 26.276C176.991 27.284 176.991 28.316 176.991 29.372V39.5H169.575ZM151.623 39.5V14.012H159.063V39.5H151.623ZM200.152 36.476C201.72 36.636 203.088 36.94 204.256 37.388C205.44 37.82 206.36 38.468 207.016 39.332C207.672 40.18 208 41.316 208 42.74C208 44.388 207.456 45.788 206.368 46.94C205.296 48.108 203.72 48.996 201.64 49.604C199.56 50.212 197.04 50.516 194.08 50.516C189.712 50.516 186.328 49.884 183.928 48.62C181.544 47.372 180.352 45.7 180.352 43.604C180.352 43.012 180.416 42.476 180.544 41.996C180.688 41.532 180.864 41.132 181.072 40.796L187.84 41.78C187.76 41.892 187.672 42.06 187.576 42.284C187.496 42.524 187.456 42.82 187.456 43.172C187.456 44.02 188.088 44.652 189.352 45.068C190.632 45.484 192.28 45.692 194.296 45.692C195.72 45.692 196.936 45.588 197.944 45.38C198.968 45.188 199.744 44.9 200.272 44.516C200.816 44.132 201.088 43.692 201.088 43.196C201.088 42.476 200.736 42.004 200.032 41.78C199.344 41.556 198.544 41.396 197.632 41.3L187.984 40.316C186.208 40.14 184.736 39.628 183.568 38.78C182.4 37.932 181.816 36.788 181.816 35.348C181.816 34.452 182.064 33.636 182.56 32.9C183.056 32.148 183.624 31.532 184.264 31.052C184.904 30.556 185.44 30.244 185.872 30.116L189.664 32.036C189.36 32.084 189 32.276 188.584 32.612C188.184 32.948 187.984 33.34 187.984 33.788C187.984 34.236 188.208 34.62 188.656 34.94C189.12 35.26 189.96 35.476 191.176 35.588L200.152 36.476ZM202.672 14.012H209.224L206.56 23.804C206.064 25.66 205.328 27.316 204.352 28.772C203.376 30.212 202.072 31.348 200.44 32.18C198.824 33.012 196.784 33.428 194.32 33.428C191.728 33.428 189.48 33.028 187.576 32.228C185.688 31.428 184.232 30.3 183.208 28.844C182.184 27.372 181.672 25.636 181.672 23.636C181.672 21.636 182.192 19.876 183.232 18.356C184.288 16.836 185.72 15.652 187.528 14.804C189.352 13.956 191.416 13.532 193.72 13.532C195.464 13.532 197.056 13.82 198.496 14.396C199.952 14.956 201.12 15.7 202 16.628C202.896 17.556 203.36 18.58 203.392 19.7L202.024 20.06L202.672 14.012ZM194.272 27.98C195.328 27.98 196.256 27.812 197.056 27.476C197.856 27.124 198.48 26.62 198.928 25.964C199.376 25.292 199.6 24.484 199.6 23.54C199.6 22.612 199.376 21.82 198.928 21.164C198.48 20.508 197.856 20.004 197.056 19.652C196.256 19.3 195.328 19.124 194.272 19.124C193.264 19.124 192.352 19.308 191.536 19.676C190.736 20.028 190.104 20.54 189.64 21.212C189.176 21.868 188.944 22.668 188.944 23.612C188.944 24.54 189.168 25.332 189.616 25.988C190.064 26.628 190.688 27.124 191.488 27.476C192.288 27.812 193.216 27.98 194.272 27.98ZM216.946 40.22C215.842 40.22 214.906 39.836 214.138 39.068C213.37 38.3 212.986 37.364 212.986 36.26C212.986 35.172 213.37 34.244 214.138 33.476C214.906 32.708 215.842 32.324 216.946 32.324C218.034 32.324 218.962 32.708 219.73 33.476C220.498 34.244 220.882 35.172 220.882 36.26C220.882 37.364 220.498 38.3 219.73 39.068C218.962 39.836 218.034 40.22 216.946 40.22Z" fill="#20273E"/>
</svg>
